<svg xmlns="http://www.w3.org/2000/svg" width="339pt" height="339pt" version="1" viewBox="0 0 339.000000 339.000000"><path d="M83.8 43.1L0 85.1v168.7l84.6 42.3 84.5 42.3 84.5-42.2c73.4-36.7 84.4-42.5 84.5-44.5 0-1.2.1-39.1.2-84.2l.1-82-83.9-42.2C208.3 20.1 169.8 1.1 169 1.1c-.8 0-39.2 18.9-85.2 42zm57.7 41.5c.2 8.9.7 16 1.3 16.6.6.6 6.7 3.8 13.8 7.3l12.7 6.3 12.5-6.4c6.9-3.5 13-6.5 13.5-6.7.5-.1 1-7.6 1.1-16.5.2-8.9.5-16.4.7-16.7.4-.4 23.8 10.4 24.9 11.5.3.3 4.8 2.7 10 5.4 10.8 5.5 19.7 10.4 22.2 12 1.5 1 1 1.6-3.5 4-10.1 5.4-41.4 21.5-61.5 31.5L169 143l-44-22c-24.2-12.2-44-22.4-44-22.8.1-.9 59.3-30.3 59.8-29.7.3.2.6 7.5.7 16.1zm-48.6 73.3c20.7 10.4 40.1 20.2 43.1 21.8l5.5 2.9.3 44.2c.1 24.3 0 44.2-.4 44.2-1.5 0-60.4-30.2-60-30.9.3-.4 7.9-4.3 17-8.6l16.5-8 .2-5.3c0-2.8.1-8.5.2-12.6l.2-7.4-14.2-7.1-14.2-7.1-15.9 8c-8.7 4.4-16.3 8-16.8 8-.7 0-1.2-59.2-.5-60.8.3-.7 4.5 1.3 39 18.7zm191.4 4.8c-.5 34.9-.6 36.9-2.2 36.5-.8-.2-8.1-3.6-16.3-7.7l-14.9-7.4L237 191l-14 7v11.9c0 8.3.4 12.2 1.3 12.9 1.1 1 4.1 2.6 19.7 11 7.3 3.8 11.4 7.2 10.3 8.3-1.3 1.1-55.7 28.4-56.8 28.4-.7 0-1-15.4-1.1-44.1l-.1-44.2 43.6-21.5c24-11.9 43.9-21.6 44.2-21.6.3-.1.4 10.6.2 23.6z"/></svg>